M48
METRIC,TZ
T01C1.0160
T02C0.7620
%
T01
X-5080Y+16510
X-5080Y+13970
X-5080Y+11430
X-5080Y+8890
X-5080Y+6350
X-5080Y+3810
T02
X-11430Y+8890
X-11430Y+19050
X-13970Y+13970
X-13970Y+3810
X-19050Y+7620
X-19050Y+17780
X-16510Y+13970
X-16510Y+3810
X-21590Y+11430
X-21590Y+8890
X-21590Y+6350
X-21590Y+3810
X-29210Y+3810
X-29210Y+6350
X-29210Y+8890
X-29210Y+11430
M30
