G04 PROTEUS RS274X GERBER FILE*
%FSLAX45Y45*%
%MOMM*%
G01*
%ADD15C,0.203200*%
%ADD17C,0.127000*%
%ADD16C,0.063500*%
D15*
X-463099Y+1695901D02*
X-552901Y+1606099D01*
X-463099Y+1606099D02*
X-552901Y+1695901D01*
X-463099Y+1441901D02*
X-552901Y+1352099D01*
X-463099Y+1352099D02*
X-552901Y+1441901D01*
X-463099Y+1187901D02*
X-552901Y+1098099D01*
X-463099Y+1098099D02*
X-552901Y+1187901D01*
X-463099Y+933901D02*
X-552901Y+844099D01*
X-463099Y+844099D02*
X-552901Y+933901D01*
X-463099Y+679901D02*
X-552901Y+590099D01*
X-463099Y+590099D02*
X-552901Y+679901D01*
X-463099Y+425901D02*
X-552901Y+336099D01*
X-463099Y+336099D02*
X-552901Y+425901D01*
X-1143000Y+952500D02*
X-1143000Y+825500D01*
X-1079500Y+889000D02*
X-1206500Y+889000D01*
X-1143000Y+1968500D02*
X-1143000Y+1841500D01*
X-1079500Y+1905000D02*
X-1206500Y+1905000D01*
X-1397000Y+1460500D02*
X-1397000Y+1333500D01*
X-1333500Y+1397000D02*
X-1460500Y+1397000D01*
X-1397000Y+444500D02*
X-1397000Y+317500D01*
X-1333500Y+381000D02*
X-1460500Y+381000D01*
X-1905000Y+825500D02*
X-1905000Y+698500D01*
X-1841500Y+762000D02*
X-1968500Y+762000D01*
X-1905000Y+1841500D02*
X-1905000Y+1714500D01*
X-1841500Y+1778000D02*
X-1968500Y+1778000D01*
X-1651000Y+1460500D02*
X-1651000Y+1333500D01*
X-1587500Y+1397000D02*
X-1714500Y+1397000D01*
X-1651000Y+444500D02*
X-1651000Y+317500D01*
X-1587500Y+381000D02*
X-1714500Y+381000D01*
X-2159000Y+1206500D02*
X-2159000Y+1079500D01*
X-2095500Y+1143000D02*
X-2222500Y+1143000D01*
X-2159000Y+952500D02*
X-2159000Y+825500D01*
X-2095500Y+889000D02*
X-2222500Y+889000D01*
X-2159000Y+698500D02*
X-2159000Y+571500D01*
X-2095500Y+635000D02*
X-2222500Y+635000D01*
X-2159000Y+444500D02*
X-2159000Y+317500D01*
X-2095500Y+381000D02*
X-2222500Y+381000D01*
X-2921000Y+444500D02*
X-2921000Y+317500D01*
X-2857500Y+381000D02*
X-2984500Y+381000D01*
X-2921000Y+698500D02*
X-2921000Y+571500D01*
X-2857500Y+635000D02*
X-2984500Y+635000D01*
X-2921000Y+952500D02*
X-2921000Y+825500D01*
X-2857500Y+889000D02*
X-2984500Y+889000D01*
X-2921000Y+1206500D02*
X-2921000Y+1079500D01*
X-2857500Y+1143000D02*
X-2984500Y+1143000D01*
D17*
X-2760980Y-899160D02*
X-116840Y-899160D01*
X-116840Y-137160D01*
X-2760980Y-137160D01*
X-2760980Y-899160D01*
D16*
X-584202Y-137160D02*
X-584202Y-899160D01*
X-1397002Y-137160D02*
X-1397002Y-899160D01*
X-2230122Y-137160D02*
X-2230122Y-899160D01*
X-116840Y-410210D02*
X-2760980Y-410210D01*
X-116840Y-651510D02*
X-2760980Y-651510D01*
D17*
X-539750Y-300990D02*
X-524510Y-316230D01*
X-463550Y-316230D01*
X-448310Y-300990D01*
X-448310Y-285750D01*
X-463550Y-270510D01*
X-524510Y-270510D01*
X-539750Y-255270D01*
X-539750Y-240030D01*
X-524510Y-224790D01*
X-463550Y-224790D01*
X-448310Y-240030D01*
X-326390Y-224790D02*
X-417830Y-316230D01*
X-417830Y-224790D02*
X-372110Y-270510D01*
X-295910Y-316230D02*
X-295910Y-224790D01*
X-250190Y-270510D01*
X-204470Y-224790D01*
X-204470Y-316230D01*
X-1129030Y-300990D02*
X-1113790Y-316230D01*
X-1052830Y-316230D01*
X-1037590Y-300990D01*
X-1037590Y-285750D01*
X-1052830Y-270510D01*
X-1113790Y-270510D01*
X-1129030Y-255270D01*
X-1129030Y-240030D01*
X-1113790Y-224790D01*
X-1052830Y-224790D01*
X-1037590Y-240030D01*
X-991870Y-224790D02*
X-930910Y-224790D01*
X-961390Y-224790D02*
X-961390Y-316230D01*
X-991870Y-316230D02*
X-930910Y-316230D01*
X-885190Y-224790D02*
X-793750Y-224790D01*
X-885190Y-316230D01*
X-793750Y-316230D01*
X-671830Y-316230D02*
X-763270Y-316230D01*
X-763270Y-224790D01*
X-671830Y-224790D01*
X-763270Y-270510D02*
X-702310Y-270510D01*
X-2185670Y-316230D02*
X-2185670Y-224790D01*
X-2109470Y-224790D01*
X-2094230Y-240030D01*
X-2094230Y-255270D01*
X-2109470Y-270510D01*
X-2185670Y-270510D01*
X-2063750Y-224790D02*
X-2063750Y-316230D01*
X-1972310Y-316230D01*
X-1941830Y-316230D02*
X-1941830Y-255270D01*
X-1911350Y-224790D01*
X-1880870Y-224790D01*
X-1850390Y-255270D01*
X-1850390Y-316230D01*
X-1941830Y-285750D02*
X-1850390Y-285750D01*
X-1819910Y-224790D02*
X-1728470Y-224790D01*
X-1774190Y-224790D02*
X-1774190Y-316230D01*
X-1606550Y-316230D02*
X-1697990Y-316230D01*
X-1697990Y-224790D01*
X-1606550Y-224790D01*
X-1697990Y-270510D02*
X-1637030Y-270510D01*
X-1576070Y-316230D02*
X-1576070Y-224790D01*
X-1515110Y-224790D01*
X-1484630Y-255270D01*
X-1484630Y-285750D01*
X-1515110Y-316230D01*
X-1576070Y-316230D01*
X-2653030Y-255270D02*
X-2622550Y-224790D01*
X-2592070Y-224790D01*
X-2561590Y-255270D01*
X-2561590Y-285750D01*
X-2592070Y-316230D01*
X-2622550Y-316230D01*
X-2653030Y-285750D01*
X-2653030Y-255270D01*
X-2592070Y-285750D02*
X-2561590Y-316230D01*
X-2531110Y-224790D02*
X-2439670Y-224790D01*
X-2485390Y-224790D02*
X-2485390Y-316230D01*
X-2317750Y-224790D02*
X-2409190Y-316230D01*
X-2409190Y-224790D02*
X-2363470Y-270510D01*
D15*
X-363220Y-461010D02*
X-363220Y-588010D01*
X-299720Y-524510D02*
X-426720Y-524510D01*
D17*
X-1371600Y-549910D02*
X-1371600Y-499110D01*
X-1358900Y-486410D01*
X-1308100Y-486410D01*
X-1295400Y-499110D01*
X-1295400Y-549910D01*
X-1308100Y-562610D01*
X-1358900Y-562610D01*
X-1371600Y-549910D01*
X-1371600Y-562610D02*
X-1295400Y-486410D01*
X-1231900Y-549910D02*
X-1219200Y-549910D01*
X-1219200Y-562610D01*
X-1231900Y-562610D01*
X-1231900Y-549910D01*
X-1155700Y-486410D02*
X-1092200Y-486410D01*
X-1092200Y-499110D01*
X-1155700Y-562610D01*
X-990600Y-499110D02*
X-1003300Y-486410D01*
X-1041400Y-486410D01*
X-1054100Y-499110D01*
X-1054100Y-549910D01*
X-1041400Y-562610D01*
X-1003300Y-562610D01*
X-990600Y-549910D01*
X-990600Y-537210D01*
X-1003300Y-524510D01*
X-1054100Y-524510D01*
X-952500Y-499110D02*
X-939800Y-486410D01*
X-901700Y-486410D01*
X-889000Y-499110D01*
X-889000Y-511810D01*
X-901700Y-524510D01*
X-939800Y-524510D01*
X-952500Y-537210D01*
X-952500Y-562610D01*
X-889000Y-562610D01*
X-863600Y-562610D02*
X-863600Y-511810D01*
X-863600Y-524510D02*
X-850900Y-511810D01*
X-825500Y-537210D01*
X-800100Y-511810D01*
X-787400Y-524510D01*
X-787400Y-562610D01*
X-762000Y-562610D02*
X-762000Y-511810D01*
X-762000Y-524510D02*
X-749300Y-511810D01*
X-723900Y-537210D01*
X-698500Y-511810D01*
X-685800Y-524510D01*
X-685800Y-562610D01*
X-1714500Y-486410D02*
X-1790700Y-562610D01*
X-1790700Y-486410D02*
X-1752600Y-524510D01*
X-1612900Y-562610D02*
X-1689100Y-562610D01*
X-1689100Y-486410D01*
X-1612900Y-486410D01*
X-1689100Y-524510D02*
X-1638300Y-524510D01*
X-1587500Y-549910D02*
X-1574800Y-562610D01*
X-1524000Y-562610D01*
X-1511300Y-549910D01*
X-1511300Y-537210D01*
X-1524000Y-524510D01*
X-1574800Y-524510D01*
X-1587500Y-511810D01*
X-1587500Y-499110D01*
X-1574800Y-486410D01*
X-1524000Y-486410D01*
X-1511300Y-499110D01*
X-2509520Y-511810D02*
X-2484120Y-486410D01*
X-2484120Y-562610D01*
X-2357120Y-499110D02*
X-2369820Y-486410D01*
X-2407920Y-486410D01*
X-2420620Y-499110D01*
X-2420620Y-549910D01*
X-2407920Y-562610D01*
X-2369820Y-562610D01*
X-2357120Y-549910D01*
X-2357120Y-537210D01*
X-2369820Y-524510D01*
X-2420620Y-524510D01*
D15*
X-318319Y-720909D02*
X-408121Y-810711D01*
X-318319Y-810711D02*
X-408121Y-720909D01*
D17*
X-1346200Y-753110D02*
X-1320800Y-727710D01*
X-1320800Y-803910D01*
X-1231900Y-791210D02*
X-1219200Y-791210D01*
X-1219200Y-803910D01*
X-1231900Y-803910D01*
X-1231900Y-791210D01*
X-1168400Y-791210D02*
X-1168400Y-740410D01*
X-1155700Y-727710D01*
X-1104900Y-727710D01*
X-1092200Y-740410D01*
X-1092200Y-791210D01*
X-1104900Y-803910D01*
X-1155700Y-803910D01*
X-1168400Y-791210D01*
X-1168400Y-803910D02*
X-1092200Y-727710D01*
X-1041400Y-753110D02*
X-1016000Y-727710D01*
X-1016000Y-803910D01*
X-889000Y-740410D02*
X-901700Y-727710D01*
X-939800Y-727710D01*
X-952500Y-740410D01*
X-952500Y-791210D01*
X-939800Y-803910D01*
X-901700Y-803910D01*
X-889000Y-791210D01*
X-889000Y-778510D01*
X-901700Y-765810D01*
X-952500Y-765810D01*
X-863600Y-803910D02*
X-863600Y-753110D01*
X-863600Y-765810D02*
X-850900Y-753110D01*
X-825500Y-778510D01*
X-800100Y-753110D01*
X-787400Y-765810D01*
X-787400Y-803910D01*
X-762000Y-803910D02*
X-762000Y-753110D01*
X-762000Y-765810D02*
X-749300Y-753110D01*
X-723900Y-778510D01*
X-698500Y-753110D01*
X-685800Y-765810D01*
X-685800Y-803910D01*
X-1714500Y-727710D02*
X-1790700Y-803910D01*
X-1790700Y-727710D02*
X-1752600Y-765810D01*
X-1612900Y-803910D02*
X-1689100Y-803910D01*
X-1689100Y-727710D01*
X-1612900Y-727710D01*
X-1689100Y-765810D02*
X-1638300Y-765810D01*
X-1587500Y-791210D02*
X-1574800Y-803910D01*
X-1524000Y-803910D01*
X-1511300Y-791210D01*
X-1511300Y-778510D01*
X-1524000Y-765810D01*
X-1574800Y-765810D01*
X-1587500Y-753110D01*
X-1587500Y-740410D01*
X-1574800Y-727710D01*
X-1524000Y-727710D01*
X-1511300Y-740410D01*
X-2357120Y-740410D02*
X-2369820Y-727710D01*
X-2407920Y-727710D01*
X-2420620Y-740410D01*
X-2420620Y-791210D01*
X-2407920Y-803910D01*
X-2369820Y-803910D01*
X-2357120Y-791210D01*
X-2357120Y-778510D01*
X-2369820Y-765810D01*
X-2420620Y-765810D01*
M02*
